{"title":"Inkaar 2013 DvdRip Esubs (ICTV) - HINDI","uid":8164265,"size":2048381124,"categoryP":"video","categoryS":"movies","magnet":"?xt=urn:btih:4bac7455f9d984f6d540df5fb04ebadd2b87a96b&amp;dn=Inkaar+2013+DvdRip+Esubs+%28ICTV%29+-+HINDI&amp;tr=udp%3A%2F%2Ftracker.openbittorrent.com%3A80&amp;tr=udp%3A%2F%2Fopen.demonii.com%3A1337&amp;tr=udp%3A%2F%2Ftracker.coppersurfer.tk%3A6969&amp;tr=udp%3A%2F%2Fexodus.desync.com%3A6969","seeders":1,"leechers":0,"uploader":"SJonam","files":1,"time":1361303885,"description":" &lt;a href=&quot;http://desibbrg.org/images/66952052392581364616.gif&quot; rel=&quot;nofollow&quot; target=&quot;_NEW&quot;&gt;http://desibbrg.org/images/66952052392581364616.gif&lt;/a&gt;\n &lt;a href=&quot;\nhttp://desibbrg.org/images/60774261696674346407.jpg&quot; rel=&quot;nofollow&quot; target=&quot;_NEW&quot;&gt;\nhttp://desibbrg.org/images/60774261696674346407.jpg&lt;/a&gt;\n &lt;a href=&quot;\nhttp://desibbrg.org/images/69707315040032598993.png&quot; rel=&quot;nofollow&quot; target=&quot;_NEW&quot;&gt;\nhttp://desibbrg.org/images/69707315040032598993.png&lt;/a&gt;\n &lt;a href=&quot;\nhttp://desibbrg.org/images/19789020888525597960.png&quot; rel=&quot;nofollow&quot; target=&quot;_NEW&quot;&gt;\nhttp://desibbrg.org/images/19789020888525597960.png&lt;/a&gt;\n &lt;a href=&quot;\nhttp://desibbrg.org/images/42923264839957528313.png&quot; rel=&quot;nofollow&quot; target=&quot;_NEW&quot;&gt;\nhttp://desibbrg.org/images/42923264839957528313.png&lt;/a&gt;\n &lt;a href=&quot;\nhttp://desibbrg.org/images/34352928846707451251.png&quot; rel=&quot;nofollow&quot; target=&quot;_NEW&quot;&gt;\nhttp://desibbrg.org/images/34352928846707451251.png&lt;/a&gt;\n\nInfo - \n\nGenre............: Romance\nYear.............: 2013\nCast.............: Arjun Rampal ,Chitrangda Singh\nDirector.........: Sudhir Mishra\nSource...........: Team Ictv\n\nMedia Info - \nGeneral\nComplete name : Inkaar (2013)Dvd Rip with E subs Team Ictv Exclusive.avi\nFormat : AVI\nFormat/Info : Audio Video Interleave\nFormat profile : OpenDML\nFile size : 1.91 GiB\nDuration : 2h 7mn\nOverall bit rate : 2 145 Kbps\n\nVideo\nID : 0\nFormat : mp43\nCodec ID : mp43\nDuration : 2h 7mn\nBit rate : 1 999 Kbps\nWidth : 852 pixels\nHeight : 480 pixels\nDisplay aspect ratio : 16:9\nFrame rate : 29.970 fps\nBits/(Pixel*Frame) : 0.163\nStream size : 1.78 GiB (93%)\n\nAudio\nID : 1\nFormat : MPEG Audio\nFormat version : Version 1\nFormat profile : Layer 3\nMode : Joint stereo\nMode extension : MS Stereo\nCodec ID : 55\nCodec ID/Hint : MP3\nDuration : 2h 7mn\nBit rate mode : Constant\nBit rate : 128 Kbps\nChannel(s) : 2 channels\nSampling rate : 48.0 KHz\nCompression mode : Lossy\nStream size : 117 MiB (6%)\nAlignment : Aligned on interleaves\nInterleave, duration : 24 ms (0.72 video frame)\nWriting library : LAME3.98.2\n\nRipper : black_pearl\n\nSeeding 24x7... Extreme Seeding...\n\n\nEnjoy!\n","torrent":{"xt":"urn:btih:4bac7455f9d984f6d540df5fb04ebadd2b87a96b","amp;dn":"Inkaar+2013+DvdRip+Esubs+%28ICTV%29+-+HINDI","amp;tr":["udp%3A%2F%2Ftracker.openbittorrent.com%3A80","udp%3A%2F%2Fopen.demonii.com%3A1337","udp%3A%2F%2Ftracker.coppersurfer.tk%3A6969","udp%3A%2F%2Fexodus.desync.com%3A6969"],"infoHash":"4bac7455f9d984f6d540df5fb04ebadd2b87a96b","infoHashBuffer":{"type":"Buffer","data":[75,172,116,85,249,217,132,246,213,64,223,95,176,78,186,221,43,135,169,107]},"announce":[],"urlList":[]}}